<?xml version="1.0" encoding="UTF-8" standalone="no"?>
<!-- Generator: Adobe Illustrator 19.0.0, SVG Export Plug-In . SVG Version: 6.00 Build 0)  -->

<svg
   version="1.1"
   id="Layer_1"
   x="0px"
   y="0px"
   viewBox="-100 -100 2628.2771 2504.7623"
   xml:space="preserve"
   inkscape:version="1.4.4 (dcaf3e7, 2026-05-05)"
   sodipodi:docname="fluid.svg"
   width="2628.2791"
   height="2504.7639"
   inkscape:export-filename="fluid.png"
   inkscape:export-xdpi="96"
   inkscape:export-ydpi="96"
   xmlns:inkscape="http://www.inkscape.org/namespaces/inkscape"
   xmlns:sodipodi="http://sodipodi.sourceforge.net/DTD/sodipodi-0.dtd"
   xmlns="http://www.w3.org/2000/svg"
   xmlns:svg="http://www.w3.org/2000/svg"
   xmlns:rdf="http://www.w3.org/1999/02/22-rdf-syntax-ns#"
   xmlns:cc="http://creativecommons.org/ns#"
   xmlns:dc="http://purl.org/dc/elements/1.1/"><metadata
   id="metadata43"><rdf:RDF><cc:Work
       rdf:about=""><dc:format>image/svg+xml</dc:format><dc:type
         rdf:resource="http://purl.org/dc/dcmitype/StillImage" /></cc:Work></rdf:RDF></metadata><defs
   id="defs41">








<filter
   style="color-interpolation-filters:sRGB"
   inkscape:label="Drop Shadow"
   id="filter26"
   x="-0.013585724"
   y="-0.013587719"
   width="1.0271714"
   height="1.0384985"><feFlood
     result="flood"
     in="SourceGraphic"
     flood-opacity="0.498039"
     flood-color="rgb(0,0,0)"
     id="feFlood25" /><feGaussianBlur
     result="blur"
     in="SourceGraphic"
     stdDeviation="10.000000"
     id="feGaussianBlur25" /><feOffset
     result="offset"
     in="blur"
     dx="0.000000"
     dy="20.000000"
     id="feOffset25" /><feComposite
     result="comp1"
     operator="in"
     in="flood"
     in2="offset"
     id="feComposite25" /><feComposite
     result="comp2"
     operator="over"
     in="SourceGraphic"
     in2="comp1"
     id="feComposite26" /></filter><filter
   style="color-interpolation-filters:sRGB"
   inkscape:label="Drop Shadow"
   id="filter31"
   x="-0.082766391"
   y="-0.14785434"
   width="1.1655328"
   height="1.3265117"><feFlood
     result="flood"
     in="SourceGraphic"
     flood-opacity="0.498039"
     flood-color="rgb(0,0,0)"
     id="feFlood30" /><feGaussianBlur
     result="blur"
     in="SourceGraphic"
     stdDeviation="40.000000"
     id="feGaussianBlur30" /><feOffset
     result="offset"
     in="blur"
     dx="0.000000"
     dy="20.000000"
     id="feOffset30" /><feComposite
     result="comp1"
     operator="in"
     in="flood"
     in2="offset"
     id="feComposite30" /><feComposite
     result="comp2"
     operator="over"
     in="SourceGraphic"
     in2="comp1"
     id="feComposite31" /></filter></defs><sodipodi:namedview
   pagecolor="#ffffff"
   bordercolor="#666666"
   borderopacity="1"
   objecttolerance="10"
   gridtolerance="10"
   guidetolerance="10"
   inkscape:pageopacity="0"
   inkscape:pageshadow="2"
   inkscape:window-width="2587"
   inkscape:window-height="1791"
   id="namedview39"
   showgrid="false"
   inkscape:zoom="0.32593204"
   inkscape:cx="678.05546"
   inkscape:cy="926.57353"
   inkscape:window-x="0"
   inkscape:window-y="32"
   inkscape:window-maximized="0"
   inkscape:current-layer="Layer_1"
   fit-margin-top="50"
   fit-margin-left="600"
   fit-margin-right="600"
   fit-margin-bottom="50"
   inkscape:showpageshadow="0"
   inkscape:pagecheckerboard="0"
   inkscape:deskcolor="#d1d1d1"
   showguides="true" /><g
   id="g9"
   transform="translate(-575.18376,2455.6065)" /><g
   id="g11"
   transform="translate(-575.18376,2455.6065)" /><g
   id="g13"
   transform="translate(-575.18376,2455.6065)" /><g
   id="g15"
   transform="translate(-575.18376,2455.6065)" /><g
   id="g17"
   transform="translate(-575.18376,2455.6065)" /><g
   id="g19"
   transform="translate(-575.18376,2455.6065)" /><g
   id="g21"
   transform="translate(-575.18376,2455.6065)" /><g
   id="g23"
   transform="translate(-575.18376,2455.6065)" /><g
   id="g25"
   transform="translate(-575.18376,2455.6065)" /><g
   id="g27"
   transform="translate(-575.18376,2455.6065)" /><g
   id="g29"
   transform="translate(-575.18376,2455.6065)" /><g
   id="g31"
   transform="translate(-575.18376,2455.6065)" /><g
   id="g33"
   transform="translate(-575.18376,2455.6065)" /><g
   id="g35"
   transform="translate(-575.18376,2455.6065)" /><g
   id="g37"
   transform="translate(-575.18376,2455.6065)" /><text
   xml:space="preserve"
   style="font-style:normal;font-weight:normal;font-size:12.053px;line-height:0%;font-family:sans-serif;letter-spacing:0px;word-spacing:0px;fill:#2b69fd;fill-opacity:1;stroke:none;stroke-width:38.6765;stroke-linecap:butt;stroke-linejoin:miter;stroke-dasharray:none;stroke-opacity:1"
   x="-24.521875"
   y="2301.699"
   id="text4189"><tspan
     sodipodi:role="line"
     id="tspan4191"
     x="-24.521875"
     y="2301.699"
     style="font-style:normal;font-variant:normal;font-weight:normal;font-stretch:normal;font-size:627.76px;line-height:1.25;font-family:'D3 Euronism';-inkscape-font-specification:'D3 Euronism';fill:#2b69fd;fill-opacity:1;stroke:none;stroke-width:38.6765;stroke-dasharray:none;stroke-opacity:1">FLUID</tspan></text>
<g
   id="g5"
   transform="matrix(0.36211925,0,0,0.36211925,301.22882,-77.988662)"><g
     id="l5RT5DtKj1LhWdw02m4Hsj6"
     fill="#7597bf"><g
       id="g1"><path
         id="p11lVaRveA"
         d="m 2366,3744 c -171,-33 -331,-113 -444,-219 -138,-130 -200,-272 -209,-476 -12,-265 65,-540 259,-920 171,-337 497,-817 571,-843 36,-13 65,9 134,99 51,68 51,68 31,89 -31,34 -260,381 -323,490 -235,410 -359,770 -357,1036 2,342 232,602 620,700 35,9 42,15 42,35 0,25 0,25 -127,24 -71,0 -159,-7 -197,-15 z" /></g></g><g
     id="l4eibENyDkLu41Td6bDSpQK"
     fill="#6994fe"><g
       id="g2"><path
         id="p6zHVeUka"
         d="M 1550,4945 C 1096,4845 783,4724 515,4545 319,4414 194,4281 121,4127 72,4023 59,3967 59,3860 c 0,-103 13,-160 58,-260 152,-334 615,-622 1262,-786 124,-31 137,-33 158,-19 26,17 32,65 10,83 -7,6 -68,25 -137,42 -640,161 -1075,435 -1212,761 -19,46 -22,72 -23,179 0,110 3,131 24,180 115,262 409,487 848,648 149,55 320,104 498,142 83,18 156,37 163,43 20,16 14,64 -10,81 -27,19 -18,20 -148,-9 z" /><path
         id="p16hMjFk8v"
         d="m 3452,4928 c -16,-16 -15,-63 2,-77 7,-6 77,-27 154,-46 537,-132 944,-346 1134,-596 31,-41 65,-92 76,-114 55,-110 70,-258 38,-370 -88,-306 -487,-591 -1067,-760 -168,-50 -178,-54 -185,-80 -7,-28 10,-62 34,-69 21,-7 246,57 390,110 151,55 376,168 497,248 194,129 320,263 395,421 48,101 64,169 63,270 -3,442 -494,828 -1321,1041 -141,36 -191,41 -210,22 z" /><path
         id="pHBPsR1ye"
         d="m 2255,4463 c -636,-42 -1126,-233 -1270,-494 -27,-49 -30,-63 -30,-144 0,-81 3,-95 30,-144 64,-117 195,-218 390,-303 146,-63 195,-63 195,3 0,34 -10,42 -90,72 -262,98 -420,239 -420,374 0,66 31,122 104,190 404,376 1680,460 2397,158 162,-68 308,-183 344,-270 56,-133 -41,-275 -267,-390 -106,-55 -108,-56 -108,-91 0,-27 5,-37 25,-46 21,-9 35,-7 88,16 153,65 302,189 354,294 24,49 28,69 28,142 0,76 -3,91 -30,139 -42,76 -93,130 -180,190 -287,199 -797,315 -1349,309 -89,-1 -183,-3 -211,-5 z" /></g></g><g
     id="lLn6z2o2ujuIwbjExLoK0Q"
     fill="#8bb3eb"><g
       id="g3"><path
         id="pJDe1Qt4v"
         d="m 2658,3750 c -1,-5 -37,-19 -78,-30 -107,-30 -264,-109 -342,-174 -62,-52 -136,-143 -171,-211 -106,-210 -93,-525 38,-882 52,-140 209,-455 308,-614 114,-185 269,-409 284,-409 22,0 241,321 360,530 221,385 336,710 350,990 9,197 -28,344 -121,474 -110,155 -294,266 -525,317 -102,22 -98,22 -103,9 z m 70,-275 c 192,-45 343,-197 387,-390 11,-48 13,-71 5,-85 -23,-44 -45,-12 -55,81 -11,104 -80,217 -170,279 -52,35 -152,70 -203,70 -21,0 -47,7 -58,15 -19,15 -19,15 0,30 24,18 17,18 94,0 z" /><path
         id="p1HErqRymJ"
         d="m 2988,1086 c -216,-77 -254,-250 -117,-536 48,-100 155,-271 198,-317 12,-12 27,-20 34,-17 25,9 139,183 201,307 151,298 120,482 -92,559 -56,21 -172,23 -224,4 z" /></g></g><g
     id="l4gsOREebjdG1Az3O7r4gNt"
     fill="#f4f8fc"><g
       id="g4"><path
         id="p11h2sXY2V"
         d="m 2600,3500 c -43,-43 -9,-100 60,-100 53,0 153,-34 205,-70 93,-64 160,-177 172,-289 9,-93 55,-129 103,-81 24,24 26,70 5,158 -45,191 -196,342 -387,387 -88,21 -134,19 -158,-5 z" /></g></g></g></svg>
